<?xml version="1.0" encoding="utf-8"?><!DOCTYPE svg PUBLIC "-//W3C//DTD SVG 1.0//EN" "http://www.w3.org/TR/2001/REC-SVG-20010904/DTD/svg10.dtd"><svg version="1.0" xmlns="http://www.w3.org/2000/svg" xmlns:xlink="http://www.w3.org/1999/xlink" x="0px" y="0px" viewBox="0 0 100 94.842" enable-background="new 0 0 100 94.842" xml:space="preserve"><path d="M0.024,24.927L0,7.511l41.034,5.265l0.023,6.946L0.024,24.927z"></path><path d="M100,7.511v17.416l-41.033-5.251v-6.947L100,7.511z"></path><path d="M35.492,8.149c-0.24,0.12-0.373,0.324-0.373,0.588c0,0.35,0.277,0.626,0.639,0.626H64.23
	c0.35,0,0.649-0.276,0.649-0.626c0-0.264-0.156-0.468-0.373-0.588L50,0L35.492,8.149z"></path><path d="M72.09,94.842l-9.699-69.351h2.488c0.732,0,1.322-0.588,1.322-1.285c0-0.733-0.59-1.321-1.322-1.321h-29.76
	c-0.732,0-1.321,0.588-1.321,1.321c0,0.697,0.589,1.285,1.321,1.285h2.489l-9.7,69.351H72.09z"></path></svg>