<?xml version="1.0" ?><svg id="Layer_1" style="enable-background:new 0 0 48 48;" version="1.1" viewBox="0 0 48 48" xml:space="preserve" xmlns="http://www.w3.org/2000/svg" xmlns:xlink="http://www.w3.org/1999/xlink"><g><rect height="14.1" transform="matrix(0.7071 -0.7071 0.7071 0.7071 -7.8701 19)" width="2" x="18" y="11.9"/></g><g><path d="M24,46C11.9,46,2,36.1,2,24c0-5.8,2.3-11.3,6.5-15.5l1.4,1.4C6.1,13.7,4,18.7,4,24c0,11,9,20,20,20c11,0,20-9,20-20   c0-10.7-8.4-19.5-19-20v9h-2V2h1c12.1,0,22,9.9,22,22S36.1,46,24,46z"/></g></svg>