<?xml version="1.0" standalone="no"?>
<!DOCTYPE svg PUBLIC "-//W3C//DTD SVG 20010904//EN"
 "http://www.w3.org/TR/2001/REC-SVG-20010904/DTD/svg10.dtd">
<svg version="1.0" xmlns="http://www.w3.org/2000/svg"
 width="250.000000pt" height="250.000000pt" viewBox="0 0 250.000000 250.000000"
 preserveAspectRatio="xMidYMid meet">
<metadata>
Created by potrace 1.14, written by Peter Selinger 2001-2017
</metadata>
<g transform="translate(0.000000,250.000000) scale(0.100000,-0.100000)"
fill="#dd0330" stroke="none">
<path d="M775 2026 c-301 -108 -451 -166 -452 -176 -2 -8 28 -284 66 -614 48
-416 73 -602 82 -611 8 -6 186 -107 397 -224 l382 -212 383 212 c210 117 388
218 396 224 16 15 158 1223 144 1235 -13 14 -909 330 -930 329 -10 -1 -220
-74 -468 -163z m768 -704 c158 -356 287 -650 287 -654 0 -5 -49 -8 -109 -8
l-109 0 -59 148 -59 147 -244 0 -244 0 -59 -147 -59 -148 -109 0 c-60 0 -109
3 -109 8 -1 11 574 1302 580 1302 3 0 135 -291 293 -648z"/>
<path d="M1168 1342 c-43 -104 -78 -192 -78 -195 0 -4 72 -7 160 -7 88 0 160
3 160 7 0 12 -155 383 -160 383 -3 0 -40 -85 -82 -188z"/>
</g>
</svg>
