<?xml version="1.0" standalone="no"?>
<!DOCTYPE svg PUBLIC "-//W3C//DTD SVG 20010904//EN"
 "http://www.w3.org/TR/2001/REC-SVG-20010904/DTD/svg10.dtd">
<svg version="1.0" xmlns="http://www.w3.org/2000/svg"
 width="249.000000pt" height="288.000000pt" viewBox="0 0 249.000000 288.000000"
 preserveAspectRatio="xMidYMid meet">
<metadata>
Created by potrace 1.14, written by Peter Selinger 2001-2017
</metadata>
<g transform="translate(0.000000,288.000000) scale(0.100000,-0.100000)"
fill="#673eb6" stroke="none">
<path d="M1200 2549 c-19 -11 -75 -44 -125 -74 -49 -30 -143 -85 -208 -122
-65 -37 -150 -87 -190 -110 -40 -24 -97 -56 -127 -73 -30 -17 -107 -61 -170
-98 l-115 -68 -3 -572 -2 -572 37 -20 c21 -12 72 -41 113 -65 41 -25 97 -56
125 -71 27 -15 60 -34 75 -44 14 -10 70 -44 125 -75 187 -108 240 -139 312
-182 40 -24 74 -43 77 -43 2 0 29 -16 61 -35 l57 -34 37 20 c20 11 74 43 121
71 47 28 103 61 125 73 22 13 78 46 125 74 47 28 103 60 125 72 22 12 65 36
95 54 175 103 231 135 237 135 3 0 20 10 37 23 17 12 43 29 59 36 l27 14 0
568 0 569 -37 21 c-21 11 -72 40 -113 64 -41 24 -95 55 -120 68 -25 14 -94 55
-153 91 -60 36 -111 66 -113 66 -2 0 -43 23 -91 51 -49 29 -117 69 -153 89
-36 21 -96 56 -134 79 -39 23 -72 41 -75 41 -3 -1 -22 -10 -41 -21z m-272
-526 c59 -18 153 -57 209 -86 l102 -52 113 57 c120 60 277 113 368 123 76 8
150 -10 203 -50 116 -89 78 -293 -99 -525 l-45 -59 59 -83 c118 -166 164 -292
148 -400 -9 -57 -33 -90 -94 -126 -42 -24 -56 -27 -137 -26 -77 0 -107 6 -205
38 -63 21 -159 62 -212 90 l-97 51 -113 -57 c-194 -98 -371 -142 -478 -119
-62 13 -127 61 -146 108 -44 105 14 282 153 464 l44 59 -44 59 c-64 83 -132
207 -151 270 -21 72 -20 157 2 201 21 42 87 90 139 101 63 13 169 -1 281 -38z"/>
<path d="M643 1980 c-49 -16 -73 -53 -73 -115 0 -54 30 -157 54 -184 7 -9 21
-32 31 -51 10 -19 36 -59 58 -88 l40 -53 61 59 c77 74 209 188 265 227 93 66
93 55 -1 103 -170 86 -349 128 -435 102z"/>
<path d="M1672 1979 c-81 -16 -352 -127 -352 -144 0 -2 33 -27 73 -56 71 -52
273 -224 279 -237 2 -4 15 -17 29 -29 l25 -23 46 63 c25 34 65 99 88 143 35
66 43 95 47 150 4 60 2 73 -16 96 -35 44 -116 58 -219 37z"/>
<path d="M1144 1724 c-93 -67 -232 -184 -294 -249 l-45 -47 98 -93 c107 -103
286 -242 322 -251 39 -10 203 109 367 265 65 61 76 76 68 91 -11 21 -208 197
-282 254 -68 51 -125 86 -142 86 -8 0 -49 -25 -92 -56z m202 -188 c42 -42 44
-46 44 -105 0 -58 -3 -65 -37 -102 -65 -68 -156 -71 -220 -6 -65 64 -62 155 6
220 37 34 44 37 102 37 59 0 63 -2 105 -44z"/>
<path d="M713 1317 c-23 -30 -63 -95 -89 -145 -40 -76 -49 -103 -52 -157 -5
-77 11 -109 66 -132 82 -34 273 10 453 104 61 32 69 39 54 48 -10 5 -35 24
-55 40 -21 17 -64 50 -96 75 -63 50 -71 56 -170 152 l-70 67 -41 -52z"/>
<path d="M1644 1292 c-107 -102 -168 -152 -309 -255 -19 -14 -18 -15 20 -34
22 -11 54 -28 71 -37 51 -26 165 -67 229 -82 119 -27 206 -12 241 40 29 46 15
143 -36 240 -31 60 -129 209 -134 206 -1 0 -37 -35 -82 -78z"/>
</g>
</svg>
