<?xml version="1.0" standalone="no"?>
<!DOCTYPE svg PUBLIC "-//W3C//DTD SVG 20010904//EN"
 "http://www.w3.org/TR/2001/REC-SVG-20010904/DTD/svg10.dtd">
<svg version="1.0" xmlns="http://www.w3.org/2000/svg"
 width="400.000000pt" height="400.000000pt" viewBox="0 0 400.000000 400.000000"
 preserveAspectRatio="xMidYMid meet">
<metadata>
Created by potrace 1.14, written by Peter Selinger 2001-2017
</metadata>
<g transform="translate(0.000000,400.000000) scale(0.100000,-0.100000)"
fill="#aa1f23" stroke="none">
<path d="M165 3988 c-26 -7 -57 -29 -91 -63 -43 -42 -54 -61 -63 -106 -9 -40
-11 -509 -9 -1849 l3 -1795 23 -43 c25 -48 61 -85 107 -111 28 -15 179 -16
1866 -16 l1836 0 49 30 c30 19 60 49 79 79 l30 49 0 1836 c0 1687 -1 1838 -16
1866 -26 46 -63 82 -111 107 l-43 23 -1810 2 c-1240 1 -1822 -2 -1850 -9z
m2655 -560 c18 -20 20 -35 20 -155 0 -120 -2 -135 -20 -153 -19 -19 -34 -20
-477 -20 -467 -1 -565 -6 -656 -37 -70 -24 -157 -110 -180 -177 -36 -104 -14
-262 48 -346 39 -54 129 -119 212 -156 32 -14 76 -34 98 -44 22 -10 97 -43
167 -74 69 -31 165 -74 213 -96 47 -22 88 -40 90 -40 3 0 40 -16 82 -36 127
-58 141 -64 146 -64 8 0 129 -71 144 -84 7 -6 32 -27 56 -46 129 -105 192
-256 218 -522 25 -262 -26 -462 -153 -594 -74 -77 -151 -124 -267 -163 -136
-46 -226 -51 -856 -51 -562 0 -575 0 -595 20 -18 18 -20 33 -20 155 0 122 2
137 20 155 20 20 33 20 554 20 577 0 636 4 736 55 58 30 125 102 140 151 18
60 24 233 11 308 -28 160 -119 265 -291 335 -30 12 -64 26 -75 31 -11 5 -42
18 -70 30 -27 12 -59 25 -70 30 -11 4 -123 52 -250 106 -372 157 -458 206
-565 321 -112 119 -160 262 -160 473 0 226 54 382 172 498 103 102 219 153
418 185 14 2 276 5 582 6 l557 1 21 -22z"/>
</g>
</svg>
