<?xml version="1.0" encoding="UTF-8" standalone="no"?>
<svg
   xmlns:dc="http://purl.org/dc/elements/1.1/"
   xmlns:cc="http://creativecommons.org/ns#"
   xmlns:rdf="http://www.w3.org/1999/02/22-rdf-syntax-ns#"
   xmlns:svg="http://www.w3.org/2000/svg"
   xmlns="http://www.w3.org/2000/svg"
   id="svg12"
   version="1.1"
   viewBox="0 0 512 512">
  <metadata
     id="metadata18">
    <rdf:RDF>
      <cc:Work
         rdf:about="">
        <dc:format>image/svg+xml</dc:format>
        <dc:type
           rdf:resource="http://purl.org/dc/dcmitype/StillImage" />
        <dc:title>HTML5 Logo Badge</dc:title>
      </cc:Work>
    </rdf:RDF>
  </metadata>
  <defs
     id="defs16" />
  <title
     id="title2">HTML5 Logo Badge</title>
  <path
     style="fill:#dab92d;fill-opacity:1"
     id="path4"
     d="M71,460 L30,0 481,0 440,460 255,512"
     fill="#E34F26" />
  <path
     style="fill:#ffd83a;fill-opacity:1"
     id="path6"
     d="M256,472 L405,431 440,37 256,37"
     fill="#EF652A" />
  <path
     style="fill:#ebebeb"
     id="path8"
     d="m 256,208 h -75 l -5,-58 h 80 V 94 h -1 -141 l 1,15 14,156 h 127 z m 0,147 h -1 l -63,-17 -60,-45 v 0 0 L 161.51485,368.91704 255,414 h 1 z" />
  <path
     style="fill:#ffffff"
     id="path10"
     d="m 255,208 v 57 h 70 l -7,73 -63,17 v 59 l 116,-32 1,-10 13,-149 2,-15 h -16 z m 0,-114 v 35 21 0 h 72.44458 L 358.60395,174.56345 392.07606,150 396,109 v 0 l 1,-15 z" />
  <path
     id="path4520"
     d="m 362.42542,111.4754 h 26.22611 l -12.97129,28.93467 z"
     style="fill:#dab92d;fill-opacity:1;fill-rule:evenodd;stroke:none;stroke-width:1.9682827px;stroke-linecap:butt;stroke-linejoin:miter;stroke-opacity:1" />
  <path
     id="path4520-6"
     d="m 327.84208,111.4754 h 26.22611 l -12.97129,28.93467 z"
     style="fill:#dab92d;fill-opacity:1;fill-rule:evenodd;stroke:none;stroke-width:1.9682827px;stroke-linecap:butt;stroke-linejoin:miter;stroke-opacity:1" />
</svg>
